HIERARCHY
ROOT Hips
{
	OFFSET 0.000000 0.000000 0.000000
	CHANNELS 6 Xposition Yposition Zposition Zrotation Yrotation Xrotation 
	JOINT LHipJoint
	{
		OFFSET 0.000000 0.000000 0.000000
		CHANNELS 3 Zrotation Yrotation Xrotation
		JOINT LeftUpLeg
		{
			OFFSET 1.363060 -1.794630 0.839290
			CHANNELS 3 Zrotation Yrotation Xrotation
			JOINT LeftLeg
			{
				OFFSET 2.448110 -6.726130 0.000000
				CHANNELS 3 Zrotation Yrotation Xrotation
				JOINT LeftFoot
				{
					OFFSET 2.562200 -7.039590 0.000000
					CHANNELS 3 Zrotation Yrotation Xrotation
					JOINT LeftToeBase
					{
						OFFSET 0.157640 -0.433110 2.322550
						CHANNELS 3 Zrotation Yrotation Xrotation
						End Site
						{
							OFFSET 0.000000 0.000000 0.000000
						}
					}
				}
			}
		}
	}
	JOINT RHipJoint
	{
		OFFSET 0.000000 0.000000 0.000000
		CHANNELS 3 Zrotation Yrotation Xrotation
		JOINT RightUpLeg
		{
			OFFSET -1.305520 -1.794630 0.839290
			CHANNELS 3 Zrotation Yrotation Xrotation
			JOINT RightLeg
			{
				OFFSET -2.542530 -6.985550 0.000000
				CHANNELS 3 Zrotation Yrotation Xrotation
				JOINT RightFoot
				{
					OFFSET -2.568260 -7.056230 0.000000
					CHANNELS 3 Zrotation Yrotation Xrotation
					JOINT RightToeBase
					{
						OFFSET -0.164730 -0.452590 2.363150
						CHANNELS 3 Zrotation Yrotation Xrotation
						End Site
						{
							OFFSET 0.000000 0.000000 0.000000
						}
					}
				}
			}
		}
	}
}
MOTION
Frames: 11
Frame Time: 0.008333
-1.042701 16.899675 -0.735932 41.105127 84.598832 44.456927 -9.745868 0.969289 2.623561 -12.543827 0.475307 -28.373458 -2.034634 0.563576 22.812572 0.719380 4.528180 -0.887335 0.677900 -0.000001 -22.787800 10.425963 -4.180748 -1.514486 0.271170 -12.146935 12.087410 0.956587 -2.110616 20.894941 -0.131533 1.146788 6.289686 0.121200 -0.000000 -79.414900
-0.858937 16.899723 -0.730286 39.558392 84.063722 42.765176 -9.764484 1.063811 2.516961 -12.807440 0.967469 -27.995858 -2.013466 0.623982 23.722636 0.773179 4.826732 -1.385157 0.652900 0.000000 -22.199700 10.554759 -4.214656 -1.500886 -0.546844 -12.310921 11.480630 0.769620 -2.289420 22.832938 -0.125943 1.645232 8.010192 0.323800 0.000001 -81.172300
-0.677521 16.901065 -0.723890 38.230293 83.528126 41.296155 -9.775267 1.160880 2.404642 -13.081690 1.525257 -27.563354 -2.012234 0.667996 24.485517 0.823814 5.081442 -2.032196 0.603500 0.000000 -21.740100 10.692103 -4.235380 -1.491900 -1.354844 -12.554032 10.727167 0.565171 -2.457120 24.921942 -0.161454 1.983550 9.825331 0.522400 -0.000000 -82.420000
-0.498852 16.903454 -0.716831 37.051855 82.996903 39.982791 -9.779871 1.258842 2.291007 -13.351352 2.119840 -27.074646 -2.028389 0.696848 25.099392 0.870141 5.284404 -2.799266 0.531000 -0.000000 -21.422799 10.834165 -4.237960 -1.490241 -2.134835 -12.870804 9.840897 0.348095 -2.609054 27.140671 -0.243158 2.092906 11.694962 0.682099 0.000000 -83.076000
-0.323190 16.906663 -0.708987 35.982024 82.473510 38.785388 -9.778999 1.356268 2.179835 -13.605503 2.722754 -26.527501 -2.058211 0.711945 25.567612 0.912129 5.438010 -3.647498 0.439899 -0.000000 -21.250200 10.978231 -4.218040 -1.498290 -2.871387 -13.251317 8.840860 0.125380 -2.741984 29.461753 -0.372732 1.907507 13.561668 0.757400 -0.000001 -83.076400
-0.150677 16.910491 -0.700348 34.984205 81.961026 37.667418 -9.774022 1.451639 2.074213 -13.834380 3.308584 -25.921913 -2.096956 0.715117 25.899086 0.950594 5.552727 -4.533098 0.336800 0.000000 -21.215600 11.120483 -4.172634 -1.517817 -3.547002 -13.679190 7.751224 -0.094533 -2.854733 31.851655 -0.548447 1.368630 15.351833 0.696300 -0.000000 -82.379700
0.018650 16.914844 -0.690862 34.025827 81.461801 36.595539 -9.767052 1.543660 1.976655 -14.028743 3.856453 -25.259263 -2.139458 0.708420 26.105705 0.987003 5.645613 -5.412968 0.228800 -0.000000 -21.304500 11.256216 -4.100987 -1.549823 -4.143922 -14.134833 6.598384 -0.303074 -2.948515 34.273824 -0.765036 0.437182 16.977996 0.449799 0.000000 -80.978400
0.184977 16.919724 -0.680541 33.070113 80.979585 35.532898 -9.761276 1.631184 1.888563 -14.179035 4.353285 -24.545409 -2.180721 0.694343 26.205232 1.022792 5.734050 -6.251235 0.121700 -0.000000 -21.495100 11.379782 -4.005168 -1.594618 -4.643347 -14.599071 5.406306 -0.492720 -3.026730 36.690705 -1.013956 -0.893877 18.342479 -0.012600 0.000000 -78.907100
0.348293 16.925235 -0.668861 32.174191 80.503273 34.531304 -9.751309 1.714851 1.810553 -14.302322 4.778570 -23.765365 -2.217532 0.673057 26.190486 1.062102 5.858551 -7.009582 0.021699 -0.000000 -21.759200 11.496509 -3.887152 -1.652566 -5.066063 -15.060900 4.188870 -0.659862 -3.095349 39.077261 -1.285338 -2.583246 19.362904 -0.685800 -0.000000 -76.293700
0.509054 16.931601 -0.656218 31.245056 80.040362 33.500971 -9.746238 1.793722 1.742515 -14.377156 5.142576 -22.941779 -2.246268 0.648153 26.091389 1.104658 6.020544 -7.677665 -0.070300 0.000000 -22.069600 11.594367 -3.754578 -1.720728 -5.375402 -15.496443 2.964380 -0.801824 -3.159177 41.393037 -1.566878 -4.562736 19.953463 -1.532999 0.000000 -73.241900
0.667529 16.939062 -0.642437 30.289621 79.583441 32.447413 -9.745654 1.868789 1.683553 -14.409998 5.448655 -22.075352 -2.265801 0.620490 25.910632 1.152261 6.238153 -8.244606 -0.152900 0.000000 -22.400400 11.673872 -3.613547 -1.796228 -5.576932 -15.893544 1.737109 -0.920049 -3.223392 43.614065 -1.846436 -6.715552 20.066690 -2.474300 -0.000000 -69.919701
